<svg xmlns="http://www.w3.org/2000/svg" xmlns:xlink="http://www.w3.org/1999/xlink" width="240" zoomAndPan="magnify" viewBox="0 0 180 179.999997" height="240" preserveAspectRatio="xMidYMid meet" version="1.0"><path fill="#215ad4" d="M 70.558594 34.320312 C 70.378906 35.101562 70.199219 36.238281 70.199219 36.839844 C 70.199219 37.5 69.121094 40.800781 67.800781 44.21875 L 65.339844 50.398438 L 66 55.320312 C 66.300781 58.019531 66.601562 61.621094 66.601562 63.300781 C 66.660156 67.980469 68.398438 71.039062 74.460938 76.921875 C 77.398438 79.738281 79.558594 82.261719 79.199219 82.5 C 78.898438 82.679688 78.121094 82.558594 77.460938 82.199219 C 76.800781 81.898438 74.460938 81.179688 72.179688 80.699219 C 63.601562 78.898438 62.21875 78.058594 57.238281 72.238281 C 54.71875 69.300781 51.78125 65.941406 50.699219 64.800781 C 49.621094 63.601562 47.519531 60.238281 46.019531 57.300781 C 43.5 52.199219 39.480469 47.339844 38.640625 48.179688 C 38.398438 48.359375 39.058594 49.558594 40.078125 50.820312 C 41.039062 52.078125 43.078125 55.738281 44.578125 58.980469 C 46.558594 63.238281 48.480469 66.179688 51.71875 69.839844 C 54.121094 72.601562 57 75.960938 58.078125 77.339844 C 60.601562 80.460938 63.058594 81.71875 69.898438 83.339844 C 80.941406 86.039062 81.421875 87.238281 72 88.800781 C 65.820312 89.820312 61.800781 91.441406 58.738281 94.078125 C 57.300781 95.339844 54.601562 97.5 52.800781 98.941406 C 49.078125 101.878906 48.238281 102.960938 45 109.199219 C 43.738281 111.660156 42 114.359375 41.160156 115.140625 C 39.660156 116.578125 39.058594 118.199219 40.078125 118.199219 C 41.160156 118.199219 45.058594 113.398438 47.21875 109.378906 C 48.601562 106.859375 50.699219 104.101562 52.261719 102.78125 C 58.261719 97.558594 63.300781 94.019531 65.339844 93.539062 C 71.160156 92.160156 78.300781 90.601562 79.019531 90.601562 C 80.578125 90.601562 79.738281 91.621094 75.78125 94.800781 C 70.621094 98.820312 67.5 102.660156 66.71875 105.839844 C 66.359375 107.160156 65.339844 111.238281 64.441406 114.898438 C 63.539062 118.5 62.820312 122.21875 62.878906 123.058594 C 62.878906 123.898438 63.660156 127.320312 64.558594 130.558594 C 65.578125 134.039062 66.238281 138.058594 66.300781 140.21875 C 66.300781 144.960938 67.378906 145.378906 67.921875 140.941406 C 68.21875 138.359375 67.980469 136.140625 66.660156 130.621094 L 64.980469 123.601562 L 67.261719 115.078125 C 68.519531 110.339844 69.601562 106.078125 69.601562 105.539062 C 69.601562 104.039062 81.839844 93 82.621094 93.78125 C 82.800781 93.960938 82.078125 95.339844 81 96.839844 C 75.058594 105.058594 76.921875 118.800781 84.480469 122.460938 C 87.78125 124.078125 90.480469 123.601562 93.058594 121.019531 C 98.699219 115.378906 99.179688 103.921875 94.140625 96.660156 C 93.179688 95.21875 92.460938 93.960938 92.640625 93.78125 C 93 93.359375 100.558594 99.480469 103.261719 102.359375 C 105.179688 104.460938 105.660156 105.601562 107.339844 112.800781 C 108.421875 117.238281 109.5 121.5 109.800781 122.160156 C 110.160156 123 109.738281 125.820312 108.539062 130.679688 C 107.160156 136.558594 106.921875 138.601562 107.28125 141.121094 C 107.878906 145.320312 108.898438 144.660156 108.960938 140.101562 C 109.019531 138.121094 109.859375 133.441406 110.878906 129.660156 L 112.738281 122.878906 L 110.878906 115.261719 C 109.859375 111.121094 108.71875 106.621094 108.421875 105.359375 C 108.058594 103.621094 106.800781 101.878906 103.621094 98.699219 C 101.21875 96.359375 98.339844 93.71875 97.199219 92.820312 C 96.058594 91.980469 95.339844 91.078125 95.578125 90.839844 C 95.820312 90.601562 99.421875 91.140625 103.679688 92.101562 C 112.019531 93.898438 112.859375 94.378906 120.601562 100.738281 C 124.558594 104.039062 126 105.71875 127.921875 109.261719 C 130.140625 113.398438 134.039062 118.199219 135.121094 118.199219 C 136.140625 118.199219 135.480469 116.519531 133.800781 114.898438 C 132.839844 114 131.101562 111.238281 129.960938 108.78125 C 127.261719 103.078125 126.421875 102.121094 120.898438 97.621094 C 113.339844 91.5 111.898438 90.78125 105.660156 89.398438 C 98.101562 87.78125 97.019531 87.421875 96.78125 86.640625 C 96.480469 85.800781 98.699219 84.898438 103.859375 83.761719 C 111.058594 82.140625 114.421875 80.578125 116.820312 77.640625 C 118.078125 76.140625 121.078125 72.660156 123.480469 69.839844 C 126.71875 66.179688 128.640625 63.179688 130.800781 58.679688 C 132.359375 55.261719 134.398438 51.539062 135.238281 50.398438 C 136.140625 49.261719 136.558594 48.238281 136.261719 48.121094 C 135.121094 47.761719 131.941406 51.898438 129.359375 57.058594 C 127.980469 59.878906 126.300781 62.761719 125.640625 63.421875 C 125.039062 64.078125 121.980469 67.558594 118.921875 71.160156 C 112.859375 78.359375 113.21875 78.121094 101.398438 81.179688 C 99.601562 81.660156 97.621094 82.261719 97.078125 82.5 C 94.621094 83.519531 96.238281 81.121094 101.101562 76.5 C 107.339844 70.558594 108.300781 68.519531 108.960938 60 C 109.679688 50.339844 109.558594 48.839844 107.160156 43.320312 C 105.960938 40.558594 105 37.738281 105 37.019531 C 105 35.039062 104.339844 33 103.738281 33 C 102.539062 33 103.320312 38.640625 105.238281 43.738281 L 107.21875 49.078125 L 106.199219 58.378906 C 105.238281 67.320312 105.179688 67.738281 103.320312 69.839844 C 100.441406 73.140625 93.601562 79.378906 93.300781 79.078125 C 93.121094 78.898438 93.539062 77.460938 94.261719 75.898438 C 95.339844 73.441406 95.460938 72.71875 94.859375 70.800781 C 94.5 69.539062 93.839844 68.21875 93.359375 67.859375 C 91.921875 66.660156 91.558594 68.28125 92.640625 70.738281 C 93.480469 72.539062 93.539062 73.261719 93 74.699219 L 92.28125 76.5 L 91.5 74.519531 C 90.601562 72.421875 90.421875 72.300781 88.738281 73.199219 C 87.960938 73.621094 87.238281 73.621094 86.460938 73.199219 C 85.558594 72.78125 85.078125 72.839844 84.359375 73.558594 C 83.820312 74.039062 83.398438 74.761719 83.398438 75.058594 C 83.398438 75.359375 83.160156 75.601562 82.859375 75.601562 C 81.898438 75.601562 81.78125 73.019531 82.621094 70.558594 C 83.039062 69.300781 83.21875 68.039062 83.039062 67.679688 C 82.441406 66.78125 81.058594 68.339844 80.339844 70.800781 C 79.738281 72.660156 79.859375 73.441406 80.878906 75.78125 C 81.539062 77.339844 81.898438 78.71875 81.660156 78.839844 C 81.421875 79.019531 78.71875 76.679688 75.71875 73.621094 L 70.199219 68.101562 L 69.359375 61.199219 C 67.859375 49.441406 67.859375 49.921875 70.019531 43.800781 C 71.101562 40.679688 72 36.960938 72 35.519531 C 72 32.820312 71.160156 32.101562 70.558594 34.320312 Z M 89.699219 77.578125 C 90.78125 78.421875 90.78125 78.480469 89.699219 81.480469 C 88.558594 84.539062 88.558594 84.601562 89.761719 85.441406 C 90.898438 86.339844 90.898438 86.339844 89.699219 88.621094 C 88.199219 91.5 87 91.5 85.5 88.679688 C 84.421875 86.578125 84.421875 86.398438 85.378906 85.320312 C 86.339844 84.300781 86.339844 84 85.441406 81.300781 C 84.480469 78.539062 84.480469 78.359375 85.5 77.578125 C 86.941406 76.558594 88.261719 76.558594 89.699219 77.578125 Z M 89.699219 77.578125 " fill-opacity="1" fill-rule="nonzero"/></svg>