<svg xmlns="http://www.w3.org/2000/svg" xmlns:xlink="http://www.w3.org/1999/xlink" width="240" zoomAndPan="magnify" viewBox="0 0 180 179.999997" height="240" preserveAspectRatio="xMidYMid meet" version="1.0"><path fill="#215ad4" d="M 89.101562 33 C 73.199219 35.460938 63 45 63 57.539062 C 63 66.121094 66.121094 71.699219 76.5 81.601562 C 92.761719 97.199219 97.140625 102.300781 100.019531 109.199219 C 102.121094 114.359375 102.359375 121.558594 100.441406 124.800781 C 97.320312 130.199219 90.179688 133.140625 79.199219 133.621094 C 64.621094 134.28125 51.898438 129.300781 55.019531 124.261719 C 57.78125 119.699219 68.101562 120.660156 79.679688 126.539062 C 83.28125 128.339844 83.640625 128.460938 86.640625 127.800781 C 91.5 126.78125 96.601562 122.878906 96.601562 120.179688 C 96.601562 119.398438 81.121094 111.960938 75.660156 110.101562 C 59.640625 104.699219 45.839844 108.121094 40.078125 118.921875 C 38.101562 122.699219 38.101562 130.558594 40.140625 134.398438 C 45.300781 144.058594 59.160156 149.578125 78.300781 149.578125 C 85.980469 149.519531 88.140625 149.28125 93.121094 148.019531 C 110.101562 143.578125 118.859375 133.621094 118.859375 118.800781 C 118.859375 107.21875 113.941406 97.621094 100.5 82.800781 C 90.359375 71.640625 86.941406 65.761719 86.878906 59.28125 C 86.820312 55.078125 87.898438 52.019531 90.359375 49.738281 L 91.800781 48.359375 L 93.480469 50.039062 C 96.480469 52.859375 100.679688 54 107.878906 54.058594 C 111.960938 54.058594 115.441406 53.699219 117.359375 53.101562 L 120.480469 52.199219 L 123.960938 54.300781 C 125.941406 55.5 127.859375 56.878906 128.28125 57.421875 C 128.941406 58.320312 129 58.261719 129 56.878906 C 129 55.621094 129.359375 55.199219 130.800781 54.898438 C 133.859375 54.238281 133.441406 53.398438 130.078125 53.398438 C 125.941406 53.398438 122.699219 51.601562 123.300781 49.621094 C 124.378906 46.199219 124.320312 45.660156 122.878906 44.28125 C 119.21875 40.800781 110.640625 35.160156 107.398438 34.140625 C 103.199219 32.820312 93.960938 32.28125 89.101562 33 Z M 109.921875 40.800781 C 111.601562 42.300781 111.78125 42.660156 111 43.199219 C 110.519531 43.5 108.960938 43.800781 107.578125 43.800781 C 105.539062 43.800781 104.820312 43.5 104.039062 42.300781 C 102.660156 40.199219 103.320312 39 105.898438 39 C 107.398438 39 108.539062 39.539062 109.921875 40.800781 Z M 109.921875 40.800781 " fill-opacity="1" fill-rule="nonzero"/><path fill="#215ad4" d="M 52.800781 82.800781 C 51.71875 85.5 52.320312 90.121094 54.179688 93 C 58.320312 99.238281 66.179688 102.898438 80.160156 105.238281 C 90.78125 106.980469 93 107.28125 93 106.980469 C 93 106.5 87.78125 99.960938 86.640625 98.878906 C 85.800781 98.160156 83.21875 97.621094 78 96.960938 C 73.859375 96.480469 68.699219 95.519531 66.539062 94.859375 C 60.121094 92.820312 55.738281 88.558594 54.898438 83.28125 C 54.421875 80.519531 53.820312 80.398438 52.800781 82.800781 Z M 52.800781 82.800781 " fill-opacity="1" fill-rule="nonzero"/><path fill="#215ad4" d="M 121.199219 103.378906 C 121.199219 103.558594 121.5 104.460938 121.859375 105.421875 C 122.160156 106.320312 122.878906 108.960938 123.359375 111.238281 C 124.078125 114.78125 124.558594 115.679688 126.660156 117.539062 C 130.019531 120.601562 130.441406 123.421875 127.921875 126 C 126.898438 126.960938 125.519531 127.800781 124.859375 127.800781 C 123.898438 127.800781 123.121094 128.878906 121.5 132.421875 C 120.300781 135 118.558594 138.121094 117.539062 139.320312 L 115.738281 141.601562 L 119.519531 141.601562 C 132.601562 141.601562 142.261719 133.199219 141.480469 122.460938 C 141 115.558594 136.320312 109.441406 128.699219 105.839844 C 124.5 103.859375 121.199219 102.78125 121.199219 103.378906 Z M 121.199219 103.378906 " fill-opacity="1" fill-rule="nonzero"/></svg>