<svg xmlns="http://www.w3.org/2000/svg" xmlns:xlink="http://www.w3.org/1999/xlink" width="240" zoomAndPan="magnify" viewBox="0 0 180 179.999997" height="240" preserveAspectRatio="xMidYMid meet" version="1.0"><path fill="#215ad4" d="M 73.199219 39.601562 C 69.601562 40.078125 65.820312 41.460938 65.101562 42.601562 C 64.140625 44.101562 65.460938 46.261719 67.980469 47.398438 C 71.039062 48.839844 72.121094 48.839844 76.140625 47.640625 C 79.078125 46.800781 79.320312 46.621094 79.019531 45.121094 C 78.839844 44.21875 79.078125 42.601562 79.5 41.578125 C 80.160156 40.078125 80.160156 39.601562 79.621094 39.601562 C 79.199219 39.601562 78.359375 39.480469 77.699219 39.359375 C 77.039062 39.238281 75 39.359375 73.199219 39.601562 Z M 73.199219 39.601562 " fill-opacity="1" fill-rule="nonzero"/><path fill="#215ad4" d="M 81.121094 41.519531 C 79.019531 43.621094 81.121094 47.941406 85.378906 50.398438 C 89.160156 52.558594 90.238281 52.621094 92.519531 50.699219 C 93.480469 49.859375 94.921875 49.199219 95.761719 49.199219 C 97.921875 49.199219 97.558594 48.421875 94.078125 45.71875 C 88.199219 41.28125 83.039062 39.601562 81.121094 41.519531 Z M 81.121094 41.519531 " fill-opacity="1" fill-rule="nonzero"/><path fill="#215ad4" d="M 59.941406 43.679688 C 56.339844 46.019531 52.800781 50.039062 52.800781 51.898438 C 52.800781 53.761719 54.359375 54.601562 57.78125 54.601562 C 60.480469 54.601562 62.578125 53.460938 64.921875 50.699219 C 66.238281 49.140625 66.238281 48.78125 64.800781 46.980469 C 64.140625 46.140625 63.601562 44.640625 63.601562 43.738281 C 63.601562 41.578125 63.300781 41.578125 59.941406 43.679688 Z M 59.941406 43.679688 " fill-opacity="1" fill-rule="nonzero"/><path fill="#215ad4" d="M 93.421875 51.660156 C 91.738281 52.621094 90.601562 55.5 90.601562 58.679688 C 90.601562 64.5 95.160156 69.78125 100.800781 70.5 L 103.5 70.859375 L 101.28125 69.601562 C 97.078125 67.320312 96.238281 64.199219 99.238281 62.160156 C 100.980469 61.019531 102.238281 57.539062 101.699219 55.320312 C 100.800781 51.660156 96.660156 49.800781 93.421875 51.660156 Z M 93.421875 51.660156 " fill-opacity="1" fill-rule="nonzero"/><path fill="#215ad4" d="M 49.261719 54.238281 C 47.460938 57.121094 46.199219 61.019531 46.199219 63.71875 C 46.199219 65.699219 46.441406 66.121094 47.820312 66.660156 C 51.121094 67.921875 54.238281 66.058594 56.101562 61.679688 C 57.421875 58.378906 57.300781 56.398438 55.738281 56.398438 C 55.019531 56.398438 53.578125 55.441406 52.441406 54.300781 L 50.519531 52.199219 Z M 49.261719 54.238281 " fill-opacity="1" fill-rule="nonzero"/><path fill="#215ad4" d="M 44.640625 68.160156 C 43.980469 70.738281 44.941406 76.800781 46.5 80.28125 L 48 83.578125 L 49.378906 81.539062 C 50.101562 80.398438 51.71875 78.960938 52.980469 78.300781 C 55.019531 77.21875 55.199219 76.859375 55.199219 74.519531 C 55.199219 73.140625 54.839844 71.039062 54.359375 69.960938 C 53.519531 67.980469 53.398438 67.921875 50.761719 68.21875 C 48.839844 68.460938 47.578125 68.28125 46.5 67.558594 C 45.058594 66.601562 45 66.660156 44.640625 68.160156 Z M 44.640625 68.160156 " fill-opacity="1" fill-rule="nonzero"/><path fill="#215ad4" d="M 53.578125 79.558594 C 52.5 80.101562 51.300781 81.121094 50.820312 81.839844 C 48.960938 84.660156 49.078125 85.5 51.898438 89.339844 C 53.398438 91.320312 54.78125 93 55.019531 93 C 55.320312 93 56.21875 91.621094 57.179688 90 C 58.261719 88.019531 59.761719 86.339844 61.5 85.261719 L 64.199219 83.519531 L 62.039062 81.601562 C 59.941406 79.738281 57.660156 78.601562 56.21875 78.601562 C 55.800781 78.601562 54.660156 79.078125 53.578125 79.558594 Z M 53.578125 79.558594 " fill-opacity="1" fill-rule="nonzero"/><path fill="#215ad4" d="M 72.78125 83.160156 C 69.839844 84.839844 69.71875 85.199219 71.398438 86.28125 C 72.238281 86.820312 72.960938 86.820312 74.039062 86.339844 C 75.300781 85.738281 75.71875 85.921875 77.460938 87.78125 C 79.378906 89.761719 82.800781 91.261719 82.800781 90.121094 C 82.800781 89.039062 78.121094 82.378906 77.101562 82.019531 C 75.660156 81.421875 75.539062 81.480469 72.78125 83.160156 Z M 72.78125 83.160156 " fill-opacity="1" fill-rule="nonzero"/><path fill="#215ad4" d="M 46.621094 85.921875 C 47.21875 89.28125 48.898438 93.300781 50.941406 96.179688 C 53.101562 99.359375 52.921875 99.238281 55.558594 98.28125 L 57.539062 97.558594 L 53.699219 93.539062 C 51.601562 91.320312 49.199219 88.261719 48.300781 86.761719 C 47.398438 85.261719 46.558594 84 46.441406 84 C 46.320312 84 46.378906 84.898438 46.621094 85.921875 Z M 46.621094 85.921875 " fill-opacity="1" fill-rule="nonzero"/><path fill="#215ad4" d="M 85.859375 85.738281 C 84.300781 88.621094 85.621094 93.058594 87.359375 90.71875 C 87.960938 89.878906 88.078125 89.941406 88.441406 91.078125 C 88.738281 92.039062 89.339844 92.398438 90.660156 92.398438 C 92.820312 92.398438 92.820312 91.738281 90.71875 87.898438 C 88.921875 84.539062 86.941406 83.699219 85.859375 85.738281 Z M 85.859375 85.738281 " fill-opacity="1" fill-rule="nonzero"/><path fill="#215ad4" d="M 62.339844 86.578125 C 60.121094 88.078125 57.78125 91.199219 57.179688 93.480469 C 56.941406 94.558594 57.300781 95.28125 58.859375 96.660156 C 60 97.621094 61.621094 98.820312 62.519531 99.300781 L 64.140625 100.199219 L 65.101562 96.71875 C 65.878906 94.140625 66.78125 92.640625 68.820312 90.660156 C 71.761719 87.898438 71.761719 87.960938 68.28125 86.101562 C 66.058594 84.839844 64.738281 84.960938 62.339844 86.578125 Z M 62.339844 86.578125 " fill-opacity="1" fill-rule="nonzero"/><path fill="#215ad4" d="M 111.601562 88.441406 C 110.101562 88.800781 108.359375 89.460938 107.699219 89.878906 C 106.558594 90.539062 106.558594 90.539062 107.878906 90.601562 C 108.660156 90.601562 110.101562 91.378906 111 92.398438 C 112.378906 93.898438 113.160156 94.199219 115.5 94.199219 C 117.839844 94.199219 118.261719 94.019531 117.960938 93.238281 C 117.78125 92.761719 118.019531 91.441406 118.441406 90.300781 C 119.21875 88.558594 119.160156 88.261719 118.378906 87.960938 C 117.058594 87.421875 114.601562 87.601562 111.601562 88.441406 Z M 111.601562 88.441406 " fill-opacity="1" fill-rule="nonzero"/><path fill="#215ad4" d="M 122.578125 88.199219 C 119.160156 89.640625 118.621094 94.199219 121.621094 96.601562 C 124.320312 98.699219 127.261719 99.238281 131.398438 98.460938 C 136.199219 97.5 138.421875 98.21875 141.601562 101.820312 C 143.640625 104.160156 144 104.339844 144 103.261719 C 144 99.660156 137.339844 92.160156 131.699219 89.398438 C 128.519531 87.839844 124.558594 87.359375 122.578125 88.199219 Z M 122.578125 88.199219 " fill-opacity="1" fill-rule="nonzero"/><path fill="#215ad4" d="M 96.121094 91.019531 C 96.300781 92.941406 96.539062 93.300781 98.339844 93.71875 C 99.421875 94.019531 100.441406 94.140625 100.621094 94.019531 C 100.738281 93.839844 100.320312 92.640625 99.601562 91.261719 C 98.761719 89.578125 97.980469 88.800781 97.140625 88.800781 C 96.121094 88.800781 95.941406 89.101562 96.121094 91.019531 Z M 96.121094 91.019531 " fill-opacity="1" fill-rule="nonzero"/><path fill="#215ad4" d="M 71.578125 90.300781 C 69.121094 91.320312 66.421875 95.941406 66.359375 99.121094 C 66.300781 101.460938 66.359375 101.519531 69.300781 102.660156 C 73.441406 104.21875 73.800781 104.160156 73.800781 101.519531 C 73.800781 98.761719 75.539062 94.980469 77.640625 93 L 79.261719 91.558594 L 77.28125 90.480469 C 74.878906 89.21875 74.039062 89.21875 71.578125 90.300781 Z M 71.578125 90.300781 " fill-opacity="1" fill-rule="nonzero"/><path fill="#215ad4" d="M 105.601562 93.898438 C 105.601562 95.640625 105.898438 96.121094 107.578125 96.960938 C 108.601562 97.5 110.101562 98.519531 110.878906 99.179688 C 112.378906 100.558594 112.558594 99.960938 111.601562 96.660156 C 110.878906 94.019531 108.78125 91.800781 106.980469 91.800781 C 105.78125 91.800781 105.601562 92.101562 105.601562 93.898438 Z M 105.601562 93.898438 " fill-opacity="1" fill-rule="nonzero"/><path fill="#215ad4" d="M 78.300781 94.441406 C 75.898438 97.019531 74.039062 103.738281 75.480469 104.578125 C 75.71875 104.761719 77.460938 105.058594 79.320312 105.300781 L 82.800781 105.71875 L 82.441406 103.980469 C 81.898438 101.398438 83.160156 97.558594 85.261719 95.339844 C 87.421875 93.058594 86.878906 92.398438 82.859375 92.398438 C 80.640625 92.398438 79.921875 92.699219 78.300781 94.441406 Z M 78.300781 94.441406 " fill-opacity="1" fill-rule="nonzero"/><path fill="#215ad4" d="M 89.761719 94.261719 C 86.460938 95.160156 84 98.699219 84 102.539062 C 84 105.179688 84.480469 106.019531 86.820312 107.460938 C 88.738281 108.660156 89.398438 108.71875 95.878906 108.359375 C 100.738281 108.058594 102.601562 108.121094 101.941406 108.601562 C 101.398438 108.898438 98.21875 109.378906 94.921875 109.558594 C 89.640625 109.921875 88.621094 109.859375 86.339844 108.71875 C 84.898438 108.058594 81.660156 107.21875 79.199219 106.800781 C 76.738281 106.441406 72.839844 105.480469 70.558594 104.699219 L 66.359375 103.261719 L 67.859375 104.699219 C 68.761719 105.660156 70.980469 106.621094 74.101562 107.398438 C 76.738281 108.058594 79.261719 109.078125 79.800781 109.558594 C 80.640625 110.460938 80.578125 110.519531 79.199219 110.160156 C 78.359375 109.921875 75.601562 109.261719 73.078125 108.71875 C 68.519531 107.761719 68.398438 107.761719 66.78125 108.960938 C 65.878906 109.621094 64.019531 112.261719 62.761719 114.78125 L 60.359375 119.398438 L 61.140625 125.039062 L 61.859375 130.738281 L 60.238281 133.140625 C 58.378906 135.960938 58.679688 136.800781 60.839844 135.359375 C 63.539062 133.621094 64.320312 131.160156 64.078125 125.761719 C 63.898438 121.140625 64.019531 120.71875 65.519531 118.859375 C 66.421875 117.839844 67.5 115.859375 67.859375 114.539062 C 68.398438 112.738281 68.820312 112.261719 69.539062 112.5 C 70.078125 112.738281 72.058594 113.21875 73.921875 113.578125 C 76.800781 114.121094 77.761719 114.058594 79.621094 113.21875 C 82.558594 111.960938 86.578125 111.359375 88.320312 111.960938 C 89.398438 112.320312 88.738281 112.558594 85.261719 113.160156 C 79.441406 114.179688 78.601562 115.019531 78.601562 119.640625 C 78.660156 124.378906 79.980469 127.261719 84.238281 131.398438 C 86.21875 133.320312 87.601562 135.179688 87.601562 135.898438 C 87.601562 136.621094 88.019531 137.699219 88.5 138.359375 C 89.28125 139.441406 89.339844 139.261719 89.398438 136.621094 C 89.398438 133.140625 88.800781 131.878906 85.621094 128.578125 C 83.460938 126.359375 83.21875 125.699219 83.101562 122.878906 C 83.039062 121.140625 82.738281 119.28125 82.558594 118.738281 C 82.199219 117.898438 82.679688 117.660156 85.558594 117.300781 C 89.699219 116.820312 91.5 116.101562 94.078125 113.878906 C 95.160156 112.980469 96.480469 112.199219 97.078125 112.199219 C 97.621094 112.199219 98.699219 112.019531 99.480469 111.839844 C 100.261719 111.601562 100.800781 111.71875 100.800781 112.140625 C 100.800781 112.5 100.441406 112.800781 100.019531 112.800781 C 98.820312 112.800781 93.78125 116.28125 93.359375 117.359375 C 93.058594 118.140625 93.359375 118.199219 94.800781 117.898438 C 95.878906 117.660156 97.320312 117.898438 98.640625 118.5 C 100.140625 119.21875 100.980469 119.339844 101.878906 118.859375 C 103.800781 117.839844 105.121094 115.261719 104.878906 113.039062 C 104.578125 110.699219 104.519531 110.761719 107.761719 111.898438 C 109.441406 112.441406 110.820312 112.558594 111.960938 112.199219 C 112.921875 111.960938 113.28125 111.660156 112.738281 111.660156 C 111.601562 111.601562 108.601562 109.378906 108.601562 108.539062 C 108.601562 108.238281 109.320312 108.179688 110.21875 108.359375 C 111.601562 108.71875 111.71875 108.601562 111.421875 107.460938 C 111 105.660156 112.5 105.839844 113.761719 107.699219 C 115.140625 109.800781 116.039062 109.621094 115.558594 107.28125 C 115.199219 105.359375 113.101562 102.601562 112.078125 102.601562 C 111.78125 102.601562 110.820312 101.761719 109.980469 100.800781 C 108.058594 98.519531 105.359375 97.078125 99.898438 95.519531 C 94.558594 93.960938 91.921875 93.660156 89.761719 94.261719 Z M 100.621094 99.121094 C 102.480469 100.859375 102.359375 101.398438 100.261719 101.398438 C 99 101.398438 98.101562 100.921875 97.199219 99.601562 L 95.941406 97.800781 L 97.558594 97.800781 C 98.460938 97.800781 99.839844 98.398438 100.621094 99.121094 Z M 100.621094 99.121094 " fill-opacity="1" fill-rule="nonzero"/><path fill="#215ad4" d="M 130.800781 100.140625 L 129.300781 100.558594 L 131.398438 101.699219 C 132.539062 102.300781 135.058594 104.398438 136.980469 106.441406 L 140.519531 110.101562 L 140.101562 108 C 139.558594 105.359375 138.238281 102.71875 136.621094 100.921875 C 135.359375 99.601562 133.621094 99.359375 130.800781 100.140625 Z M 130.800781 100.140625 " fill-opacity="1" fill-rule="nonzero"/><path fill="#215ad4" d="M 52.441406 101.761719 C 47.460938 105.058594 45.238281 107.878906 43.140625 113.339844 C 40.859375 119.28125 40.441406 120 39 120 C 38.398438 120 37.320312 120.539062 36.539062 121.140625 C 34.199219 123.058594 36.601562 123.421875 40.019531 121.738281 C 43.019531 120.238281 45.359375 116.941406 46.859375 112.140625 C 47.398438 110.460938 48 109.800781 49.679688 109.199219 C 50.820312 108.78125 52.980469 107.28125 54.421875 105.839844 L 57.058594 103.140625 L 60.421875 106.140625 L 63.78125 109.140625 L 65.519531 107.878906 L 67.320312 106.621094 L 64.980469 104.28125 C 60.660156 99.78125 56.640625 98.941406 52.441406 101.761719 Z M 52.441406 101.761719 " fill-opacity="1" fill-rule="nonzero"/><path fill="#215ad4" d="M 134.101562 119.878906 C 129.480469 121.859375 125.460938 122.160156 120.839844 120.960938 C 115.980469 119.699219 111.898438 119.761719 108.898438 121.140625 C 105.601562 122.640625 104.339844 124.261719 103.980469 127.378906 C 103.738281 129.539062 103.921875 130.261719 105.238281 131.820312 C 109.441406 136.800781 118.078125 135.660156 124.140625 129.421875 C 125.339844 128.160156 127.621094 126.71875 129.839844 125.941406 C 133.320312 124.621094 138.601562 120.359375 138.601562 118.800781 C 138.601562 118.019531 138.359375 118.078125 134.101562 119.878906 Z M 134.101562 119.878906 " fill-opacity="1" fill-rule="nonzero"/><path fill="#215ad4" d="M 93.421875 119.820312 C 92.699219 120.480469 92.941406 123 93.898438 124.800781 C 95.039062 126.960938 100.5 131.398438 102.058594 131.398438 C 103.019531 131.398438 103.078125 131.21875 102.480469 129.898438 C 102 128.761719 102 127.800781 102.480469 126.179688 C 103.261719 123.601562 103.199219 123.421875 100.078125 121.140625 C 97.738281 119.519531 94.378906 118.800781 93.421875 119.820312 Z M 93.421875 119.820312 " fill-opacity="1" fill-rule="nonzero"/><path fill="#215ad4" d="M 136.800781 130.558594 C 134.160156 131.519531 129.78125 131.578125 127.320312 130.738281 C 125.578125 130.140625 125.21875 130.261719 122.761719 132.421875 C 121.320312 133.679688 120.238281 134.941406 120.421875 135.238281 C 120.601562 135.539062 123.121094 135.601562 125.941406 135.480469 C 131.398438 135.121094 136.378906 133.5 138.359375 131.339844 C 139.738281 129.839844 139.320312 129.601562 136.800781 130.558594 Z M 136.800781 130.558594 " fill-opacity="1" fill-rule="nonzero"/></svg>