<svg xmlns="http://www.w3.org/2000/svg" xmlns:xlink="http://www.w3.org/1999/xlink" width="240" zoomAndPan="magnify" viewBox="0 0 180 179.999997" height="240" preserveAspectRatio="xMidYMid meet" version="1.0"><path fill="#215ad4" d="M 110.398438 39.300781 C 109.738281 41.339844 108.601562 42.179688 108.601562 40.621094 C 108.601562 39.601562 106.980469 37.378906 106.558594 37.859375 C 106.378906 38.039062 106.738281 39.601562 107.398438 41.28125 C 108.71875 44.699219 108.480469 45.179688 106.679688 42.898438 C 104.699219 40.378906 104.21875 41.941406 106.199219 44.578125 C 108.480469 47.699219 108.480469 48.421875 106.199219 46.800781 C 103.921875 45.179688 103.679688 46.558594 105.898438 48.601562 L 107.460938 50.039062 L 104.878906 50.699219 L 102.300781 51.300781 L 102.421875 55.800781 C 102.480469 58.261719 103.078125 62.160156 103.738281 64.441406 C 104.519531 67.320312 104.640625 68.28125 104.101562 67.738281 C 102.839844 66.480469 100.199219 57.960938 100.199219 55.261719 C 100.199219 53.941406 99.960938 52.738281 99.71875 52.558594 C 99.480469 52.378906 98.21875 52.5 96.960938 52.800781 L 94.679688 53.28125 L 95.039062 50.519531 C 95.398438 47.941406 95.339844 47.761719 94.5 48.839844 C 94.019531 49.5 93.601562 50.398438 93.601562 50.878906 C 93.601562 51.300781 93.300781 51.480469 92.941406 51.238281 C 92.519531 51 92.398438 49.738281 92.699219 47.460938 C 93.121094 43.921875 92.578125 43.738281 91.441406 46.980469 L 90.71875 48.898438 L 90.058594 47.21875 C 89.699219 46.261719 89.398438 44.878906 89.398438 44.101562 C 89.398438 43.320312 89.160156 42.480469 88.800781 42.300781 C 88.441406 42.058594 88.199219 42.898438 88.199219 44.398438 L 88.199219 46.859375 L 86.339844 45.898438 C 83.460938 44.339844 82.859375 45.238281 85.621094 46.980469 C 88.980469 49.140625 89.28125 49.800781 86.699219 49.378906 C 83.761719 48.898438 84.058594 49.621094 87.480469 51.121094 L 90.300781 52.441406 L 88.378906 52.679688 C 86.160156 52.921875 85.679688 54 87.78125 54 C 88.5 54 89.519531 54.300781 90 54.601562 C 90.71875 55.078125 90.601562 55.441406 89.21875 56.878906 C 88.320312 57.78125 87.601562 58.859375 87.601562 59.28125 C 87.601562 60.300781 92.699219 66.539062 96.179688 69.71875 C 97.921875 71.28125 99 72.601562 98.699219 72.601562 C 97.558594 72.601562 91.019531 66.960938 88.558594 63.78125 C 87.179688 62.101562 85.859375 60.660156 85.558594 60.660156 C 85.199219 60.601562 84.238281 61.320312 83.339844 62.160156 L 81.660156 63.71875 L 80.941406 61.261719 C 80.101562 58.441406 78.960938 57.960938 79.320312 60.601562 C 79.738281 63.359375 78.71875 62.761719 77.101562 59.21875 L 75.601562 56.101562 L 76.078125 61.5 L 73.5 58.621094 C 72.058594 57.058594 70.738281 55.800781 70.558594 55.800781 C 69.78125 55.800781 70.261719 57.480469 71.398438 58.5 C 73.140625 60.058594 72.898438 60.601562 70.5 60.601562 C 69.359375 60.601562 68.398438 60.839844 68.398438 61.199219 C 68.398438 61.5 69.179688 61.800781 70.140625 61.800781 C 71.101562 61.800781 72.660156 62.101562 73.621094 62.519531 L 75.300781 63.179688 L 73.320312 63.539062 C 70.140625 64.140625 71.101562 65.039062 74.699219 64.859375 C 78.238281 64.679688 78.898438 65.101562 76.5 66 C 75.660156 66.300781 75 66.898438 75 67.261719 C 75 67.621094 75.421875 67.738281 75.960938 67.558594 C 79.558594 66.179688 79.800781 66.300781 79.800781 69.238281 L 79.800781 72.058594 L 84.179688 74.101562 C 86.519531 75.238281 90.238281 76.621094 92.398438 77.160156 C 94.558594 77.699219 96.421875 78.300781 96.601562 78.421875 C 96.78125 78.601562 95.039062 78.601562 92.699219 78.480469 C 89.578125 78.238281 87.300781 77.640625 83.878906 76.019531 C 79.078125 73.800781 78.601562 73.859375 78.601562 76.859375 C 78.601562 78.480469 76.980469 78.300781 75.839844 76.5 C 75.300781 75.660156 74.640625 75.179688 74.28125 75.359375 C 73.980469 75.539062 74.160156 76.320312 74.699219 77.21875 C 76.140625 79.378906 75.539062 79.441406 72.660156 77.339844 C 69.71875 75.238281 68.699219 75.480469 70.800781 77.699219 C 72 78.960938 72.058594 79.199219 71.160156 79.199219 C 70.621094 79.199219 69.179688 78.78125 67.980469 78.300781 C 65.460938 77.21875 65.398438 77.21875 65.398438 78.058594 C 65.398438 78.359375 66.359375 79.078125 67.558594 79.558594 L 69.78125 80.460938 L 67.859375 81.660156 C 65.160156 83.28125 65.578125 84.238281 68.398438 82.800781 C 71.578125 81.179688 72.480469 81.300781 70.800781 83.101562 C 68.699219 85.378906 69.839844 85.558594 72.660156 83.460938 C 75.421875 81.480469 76.078125 81.421875 74.941406 83.339844 C 73.738281 85.199219 74.820312 85.621094 76.261719 83.820312 C 77.820312 81.71875 78.179688 81.78125 79.261719 84.121094 C 80.101562 86.101562 80.160156 86.101562 84.601562 86.28125 C 88.558594 86.460938 93 85.980469 97.800781 84.839844 C 99 84.539062 99.121094 84.660156 98.398438 85.140625 C 96.601562 86.460938 91.441406 87.71875 86.398438 88.078125 L 81.300781 88.5 L 81.480469 90.421875 C 81.71875 92.699219 81.601562 92.761719 79.199219 91.5 C 78.179688 90.960938 77.339844 90.839844 77.101562 91.199219 C 76.921875 91.5 77.339844 92.039062 78 92.398438 C 79.621094 93.300781 79.558594 94.441406 77.878906 94.019531 C 77.101562 93.839844 75.78125 93.480469 74.878906 93.300781 C 73.859375 93.058594 73.199219 93.121094 73.199219 93.480469 C 73.199219 93.839844 73.921875 94.378906 74.878906 94.679688 L 76.5 95.28125 L 73.980469 96.359375 C 71.28125 97.441406 70.378906 98.820312 72.78125 98.160156 C 73.5 97.980469 74.761719 97.621094 75.539062 97.378906 C 76.980469 97.019531 76.980469 97.019531 76.019531 98.460938 C 75.480469 99.238281 75 100.078125 75 100.320312 C 75 101.398438 76.140625 100.679688 77.460938 98.699219 C 79.378906 95.878906 80.460938 95.519531 79.980469 97.800781 C 79.558594 100.019531 80.820312 100.261719 81.359375 98.101562 C 81.960938 95.761719 83.039062 95.21875 84.300781 96.601562 C 85.679688 98.101562 87.421875 98.101562 93.300781 96.601562 C 99.839844 94.921875 106.679688 91.441406 107.160156 89.640625 C 107.460938 88.441406 107.941406 88.199219 109.621094 88.199219 C 111.480469 88.199219 111.660156 88.078125 111.300781 86.820312 C 110.699219 84.898438 108.898438 83.578125 106.199219 83.101562 C 104.039062 82.738281 103.800781 82.5 103.679688 80.820312 C 103.441406 75.839844 104.640625 74.21875 108.359375 74.21875 C 110.941406 74.21875 111.960938 75.121094 112.441406 77.878906 C 112.859375 80.640625 114.898438 84 116.039062 84 C 116.820312 84 116.820312 83.640625 116.160156 81.421875 C 115.261719 78.480469 115.738281 76.5 117.480469 76.078125 C 118.859375 75.71875 120.601562 77.460938 120.601562 79.199219 C 120.601562 81.058594 122.101562 84.179688 123.601562 85.5 L 124.980469 86.699219 L 124.5 84.601562 C 123.660156 81.058594 123.898438 79.199219 125.339844 78.238281 C 126.058594 77.699219 127.140625 76.320312 127.800781 75.058594 C 128.878906 72.898438 131.039062 70.738281 133.5 69.300781 C 134.820312 68.519531 134.039062 66.71875 131.699219 65.160156 C 130.199219 64.140625 130.019531 64.199219 127.5 65.640625 C 125.398438 66.898438 123.601562 68.761719 120.78125 72.539062 C 120.660156 72.660156 120.421875 72.660156 120.238281 72.480469 C 119.28125 71.460938 126 63.601562 127.738281 63.601562 C 128.101562 63.601562 128.878906 63 129.601562 62.28125 C 130.679688 61.078125 131.039062 61.019531 132.78125 61.679688 C 135.238281 62.578125 136.199219 62.578125 136.199219 61.800781 C 136.199219 61.5 135.539062 61.078125 134.699219 60.839844 C 133.859375 60.660156 133.199219 60.238281 133.199219 60 C 133.199219 59.039062 135.179688 58.800781 137.699219 59.460938 C 141.121094 60.300781 142.558594 59.820312 139.679688 58.800781 C 138.421875 58.320312 137.398438 57.78125 137.398438 57.480469 C 137.398438 56.941406 141.421875 55.800781 143.578125 55.800781 C 144.480469 55.800781 145.199219 55.5 145.199219 55.140625 C 145.199219 54.660156 144.300781 54.539062 142.5 54.71875 C 139.441406 55.078125 139.320312 54.898438 141 52.800781 C 143.460938 49.679688 142.078125 49.679688 139.261719 52.800781 C 136.441406 55.980469 134.460938 56.761719 136.441406 53.878906 C 137.460938 52.441406 137.699219 51 136.921875 51 C 136.679688 51 135.601562 52.5 134.519531 54.300781 C 133.441406 56.101562 132.300781 57.601562 131.941406 57.601562 C 131.21875 57.601562 131.28125 57.179688 132.058594 55.738281 C 133.378906 53.28125 132.121094 53.21875 130.621094 55.679688 C 128.820312 58.441406 127.921875 58.738281 126.421875 57.121094 C 124.921875 55.5 125.160156 54.839844 127.320312 54.238281 C 129.898438 53.460938 130.378906 52.078125 127.859375 52.558594 C 124.738281 53.21875 125.699219 51.660156 129.480469 49.980469 C 131.640625 48.960938 132.539062 48.300781 131.878906 48.179688 C 131.339844 48 130.320312 48.238281 129.660156 48.539062 C 128.160156 49.378906 127.800781 49.378906 127.800781 48.601562 C 127.800781 48.238281 129.121094 47.28125 130.800781 46.320312 C 133.621094 44.761719 134.578125 43.800781 133.140625 43.800781 C 132.78125 43.800781 132 44.101562 131.339844 44.398438 C 129.78125 45.238281 129.898438 44.699219 131.761719 42.238281 C 133.738281 39.660156 132.601562 39.539062 130.140625 42.121094 L 128.28125 44.101562 L 128.640625 41.820312 C 128.761719 40.621094 128.699219 39.601562 128.398438 39.601562 C 127.921875 39.601562 126.601562 44.699219 126.601562 46.5 C 126.601562 46.980469 126.359375 47.398438 126 47.398438 C 125.699219 47.398438 125.398438 46.441406 125.398438 45.300781 C 125.398438 44.160156 125.160156 43.199219 124.800781 43.199219 C 124.5 43.199219 124.199219 44.761719 124.199219 46.621094 C 124.199219 51 123.300781 52.800781 122.699219 49.621094 C 122.039062 46.199219 121.019531 46.921875 121.5 50.460938 L 121.921875 53.460938 L 119.820312 53.101562 C 117.71875 52.679688 117.71875 52.679688 116.519531 55.921875 C 115.859375 57.660156 114.71875 61.140625 114 63.601562 C 112.921875 67.378906 111.601562 70.199219 111.601562 68.878906 C 111.601562 67.441406 113.640625 58.320312 114.539062 55.621094 C 115.738281 52.140625 115.441406 51 113.339844 51 C 111.480469 51 111.421875 49.679688 113.160156 48.300781 C 115.261719 46.621094 114.660156 45.601562 112.441406 47.039062 C 110.101562 48.601562 110.101562 47.878906 112.5 44.761719 C 114.660156 41.941406 114.238281 40.980469 111.78125 43.320312 C 110.578125 44.460938 110.398438 44.460938 110.398438 43.558594 C 110.398438 43.019531 110.820312 41.578125 111.300781 40.378906 C 112.320312 37.921875 112.441406 37.199219 111.660156 37.199219 C 111.359375 37.199219 110.761719 38.160156 110.398438 39.300781 Z M 110.398438 39.300781 " fill-opacity="1" fill-rule="nonzero"/><path fill="#215ad4" d="M 132.121094 71.699219 C 129.300781 73.679688 126.839844 79.738281 128.398438 80.699219 C 128.761719 80.878906 129 81.539062 129 82.140625 C 129 82.738281 129.359375 83.578125 129.839844 83.941406 C 130.558594 84.539062 130.738281 84.421875 130.921875 83.398438 C 131.101562 82.078125 132.359375 81.960938 132.238281 83.21875 C 132.121094 84.359375 132.839844 84.179688 134.21875 82.621094 C 135.898438 80.820312 136.621094 79.320312 137.039062 76.5 C 137.878906 71.640625 135.480469 69.359375 132.121094 71.699219 Z M 132.121094 71.699219 " fill-opacity="1" fill-rule="nonzero"/><path fill="#215ad4" d="M 102.601562 94.859375 C 99.539062 96.421875 96.359375 97.441406 92.761719 98.101562 C 89.820312 98.578125 87.300781 99.121094 87.121094 99.300781 C 86.398438 100.019531 87.78125 102.539062 89.21875 103.140625 C 92.820312 104.519531 98.339844 105.660156 103.738281 106.019531 C 109.078125 106.378906 109.378906 106.320312 110.398438 105 C 111.359375 103.738281 111.539062 103.679688 113.640625 104.460938 C 116.339844 105.421875 117 104.820312 117 101.160156 C 117 99.121094 116.878906 98.878906 115.738281 99.179688 C 114.300781 99.539062 110.820312 96.78125 109.441406 94.140625 C 108.960938 93.179688 108.238281 92.460938 107.820312 92.519531 C 107.460938 92.578125 105.058594 93.601562 102.601562 94.859375 Z M 102.601562 94.859375 " fill-opacity="1" fill-rule="nonzero"/><path fill="#215ad4" d="M 83.101562 102 C 83.398438 102.960938 83.21875 103.199219 82.078125 103.199219 C 81 103.261719 81.238281 103.5 83.21875 104.519531 C 85.441406 105.539062 85.738281 105.960938 85.441406 107.160156 C 85.199219 108.058594 85.5 109.320312 86.339844 110.578125 C 88.621094 114.300781 98.039062 122.519531 101.460938 123.78125 C 102 123.960938 103.019531 123.71875 103.679688 123.238281 C 104.761719 122.460938 105.058594 122.578125 106.679688 123.898438 C 108.898438 125.761719 109.859375 125.761719 111.421875 124.019531 C 113.460938 121.738281 113.578125 121.261719 112.019531 120.660156 C 109.921875 119.878906 108.660156 115.738281 109.378906 112.378906 C 110.28125 108.421875 109.980469 108.238281 103.679688 107.820312 C 99.71875 107.578125 96.898438 107.039062 93.898438 105.898438 C 91.621094 105 88.800781 104.160156 87.71875 103.980469 C 86.519531 103.800781 85.378906 103.078125 84.78125 102.238281 C 83.640625 100.5 82.558594 100.320312 83.101562 102 Z M 83.101562 102 " fill-opacity="1" fill-rule="nonzero"/><path fill="#215ad4" d="M 77.820312 103.019531 C 77.578125 103.378906 77.578125 104.101562 77.761719 104.640625 C 78.179688 105.78125 77.761719 105.839844 76.140625 105 C 74.339844 104.039062 74.761719 105 76.980469 106.859375 C 78.421875 108.121094 78.660156 108.539062 77.878906 108.601562 C 76.679688 108.601562 76.378906 109.800781 77.578125 109.800781 C 77.941406 109.800781 78.839844 110.21875 79.441406 110.699219 C 80.398438 111.421875 80.460938 111.78125 79.921875 112.320312 C 77.21875 115.019531 83.160156 133.558594 87 134.398438 C 88.078125 134.640625 88.621094 135.359375 89.160156 137.101562 C 89.699219 139.261719 90 139.5 91.859375 139.679688 C 93 139.800781 94.378906 139.5 95.039062 139.019531 C 96 138.300781 96.058594 138.058594 95.339844 136.980469 C 94.261719 135.179688 95.460938 131.460938 98.101562 128.820312 C 99.238281 127.679688 100.199219 126.421875 100.199219 126.058594 C 100.199219 125.761719 98.941406 124.558594 97.378906 123.539062 C 93.058594 120.539062 90.058594 117.660156 87.121094 113.699219 C 85.679688 111.71875 84.058594 110.101562 83.519531 110.101562 C 82.859375 110.101562 82.441406 109.5 82.320312 108.300781 C 82.078125 106.320312 81 104.699219 81 106.378906 C 81 108.238281 79.921875 107.398438 79.078125 104.878906 C 78.601562 103.5 78.058594 102.660156 77.820312 103.019531 Z M 77.820312 103.019531 " fill-opacity="1" fill-rule="nonzero"/><path fill="#215ad4" d="M 69.121094 105.058594 C 69.300781 105.539062 69.660156 106.558594 69.898438 107.28125 C 70.261719 108.601562 70.199219 108.660156 69 108 C 66.601562 106.738281 66.421875 107.761719 68.761719 109.5 L 71.101562 111.300781 L 67.5 112.019531 L 69.121094 112.679688 C 71.398438 113.640625 71.699219 114.480469 70.078125 115.738281 C 68.761719 116.820312 68.699219 117.238281 68.699219 124.980469 C 68.761719 131.578125 68.941406 133.320312 69.78125 134.578125 C 70.558594 135.78125 70.738281 136.800781 70.441406 138.539062 C 70.140625 140.519531 70.261719 141 71.28125 141.539062 C 71.941406 141.898438 73.378906 142.199219 74.460938 142.199219 C 76.140625 142.199219 76.320312 142.019531 76.078125 140.699219 C 75.839844 139.5 76.261719 138.71875 78.058594 137.101562 C 79.378906 135.960938 80.820312 135 81.300781 135 C 82.921875 135 82.921875 133.5 81.300781 129.839844 C 79.378906 125.578125 78 120 78 116.519531 C 78 114.121094 77.941406 114 76.140625 114 C 74.28125 114 74.28125 114 74.699219 111.421875 C 75 109.199219 74.941406 109.019531 74.21875 109.921875 C 73.019531 111.421875 72.539062 110.578125 72.960938 107.878906 C 73.199219 106.378906 73.140625 105.601562 72.660156 105.601562 C 72.300781 105.601562 72 106.019531 72 106.5 C 72 107.878906 70.921875 107.578125 70.679688 106.078125 C 70.558594 105.359375 70.140625 104.640625 69.660156 104.519531 C 69.121094 104.339844 68.941406 104.519531 69.121094 105.058594 Z M 69.121094 105.058594 " fill-opacity="1" fill-rule="nonzero"/><path fill="#215ad4" d="M 59.699219 108.058594 L 60.121094 110.578125 L 58.738281 109.558594 C 56.398438 107.941406 56.160156 108.480469 58.140625 110.699219 C 60.359375 113.28125 60.421875 113.519531 58.5 113.039062 C 57.601562 112.800781 57 112.921875 57 113.339844 C 57 113.699219 57.238281 114 57.480469 114 C 57.78125 114 58.5 114.421875 59.160156 114.898438 C 60.300781 115.738281 60.300781 115.738281 59.039062 116.640625 C 57.421875 117.78125 56.941406 120.898438 57.539062 126.300781 C 57.839844 128.578125 57.960938 130.621094 57.839844 130.738281 C 57.300781 131.398438 56.21875 126.960938 55.859375 122.699219 L 55.5 117.898438 L 53.699219 117.839844 C 52.738281 117.839844 51.960938 117.539062 52.019531 117.238281 C 52.078125 116.941406 52.320312 115.921875 52.5 115.019531 C 53.039062 113.039062 51.898438 112.800781 51.179688 114.71875 C 50.820312 115.800781 50.640625 115.441406 50.398438 112.800781 L 50.039062 109.5 L 49.441406 111.601562 L 48.78125 113.699219 L 47.460938 111.121094 C 46.738281 109.738281 46.019531 108.601562 45.839844 108.601562 C 45.480469 108.601562 45.839844 110.640625 46.558594 112.5 C 46.859375 113.28125 46.679688 113.398438 45.359375 113.039062 C 43.140625 112.5 43.441406 113.519531 45.898438 114.839844 C 48.359375 116.160156 48.660156 117.179688 46.5 116.640625 C 44.339844 116.101562 44.640625 117.179688 46.859375 118.019531 C 48.601562 118.679688 48.660156 118.800781 47.761719 120.121094 C 46.679688 121.800781 46.980469 123.480469 49.5 128.398438 C 51 131.339844 51 131.578125 49.859375 130.558594 C 49.199219 129.898438 47.878906 127.980469 47.039062 126.179688 C 46.140625 124.441406 45.058594 123 44.578125 123 C 44.160156 123 43.261719 122.21875 42.71875 121.199219 C 41.699219 119.339844 40.378906 118.679688 41.039062 120.300781 C 41.578125 121.738281 40.679688 121.320312 38.28125 118.980469 C 35.640625 116.398438 34.378906 116.761719 36.898438 119.398438 C 38.578125 121.140625 38.578125 121.199219 37.261719 121.199219 C 35.519531 121.199219 36.179688 122.21875 38.28125 122.699219 C 39.179688 122.878906 40.5 123.539062 41.28125 124.078125 C 42.480469 125.039062 42.539062 125.339844 41.941406 127.078125 C 41.578125 128.160156 40.558594 129.421875 39.660156 129.898438 C 38.761719 130.320312 37.621094 131.21875 37.140625 131.761719 C 36.359375 132.71875 36.421875 132.78125 37.5 132.480469 C 38.160156 132.300781 39.121094 131.941406 39.660156 131.761719 C 40.378906 131.460938 40.738281 132.121094 41.398438 135.300781 C 42.300781 139.558594 43.441406 140.761719 45.78125 140.160156 C 46.5 139.980469 47.640625 139.019531 48.300781 138 C 49.859375 135.601562 52.140625 134.398438 55.140625 134.398438 C 56.460938 134.398438 57.71875 134.160156 57.898438 133.800781 C 58.140625 133.441406 58.921875 133.558594 60 134.101562 C 61.859375 135.058594 65.820312 135.300781 67.078125 134.460938 C 67.738281 134.101562 67.738281 133.261719 67.199219 130.140625 C 66.78125 127.800781 66.660156 124.320312 66.839844 121.320312 L 67.261719 116.398438 L 65.460938 116.039062 C 63.300781 115.621094 63.238281 115.378906 64.558594 113.519531 C 65.820312 111.71875 65.160156 111.058594 63.601562 112.5 C 62.160156 113.820312 62.101562 113.460938 63.300781 110.578125 C 64.558594 107.519531 64.378906 106.859375 62.761719 108.839844 L 61.320312 110.578125 L 60.898438 108.058594 C 60.660156 106.738281 60.238281 105.601562 59.878906 105.601562 C 59.519531 105.601562 59.460938 106.558594 59.699219 108.058594 Z M 59.699219 108.058594 " fill-opacity="1" fill-rule="nonzero"/></svg>